<svg width="63" height="55" viewBox="0 0 63 55" fill="none" xmlns="http://www.w3.org/2000/svg">
<path d="M30.8611 29.8879H57.3347C58.0251 29.8879 58.5847 30.4476 58.5847 31.1379V48.176H29.6111V31.1379C29.6111 30.4476 30.1707 29.8879 30.8611 29.8879Z" fill="#1E0A7D" stroke="url(#paint0_radial_105205_2148)" stroke-width="1.5"/>
<path d="M25.4893 50.4932H62.5801V51.989C62.5801 53.6459 61.2369 54.989 59.5801 54.989H28.4893C26.8324 54.989 25.4893 53.6459 25.4893 51.989V50.4932Z" fill="url(#paint1_radial_105205_2148)"/>
<rect x="41.2249" y="51.6172" width="6.74379" height="1.12396" rx="0.561982" fill="#140754"/>
<path d="M31.4891 21.5135C24.9891 20.5135 22.4892 24.0135 21.7149 30.0281" stroke="#75BCE4" stroke-width="2" stroke-linecap="round"/>
<path d="M31.989 16.0135C21.9258 15.0476 16.2311 21.0165 15.8276 29.8933" stroke="#75BCE4" stroke-width="2" stroke-linecap="round"/>
<path d="M31.9686 11.1965C19.1721 9.93278 10.4687 18.1965 10.4685 30.6965" stroke="#75BCE4" stroke-width="2" stroke-linecap="round"/>
<defs>
<radialGradient id="paint0_radial_105205_2148" cx="0" cy="0" r="1" gradientUnits="userSpaceOnUse" gradientTransform="translate(34.8909 33.5747) rotate(24.8201) scale(24.9178 20.0909)">
<stop offset="0.0625" stop-color="#5988FF"/>
<stop offset="0.515625" stop-color="#5988FF"/>
<stop offset="1" stop-color="#0043F0"/>
</radialGradient>
<radialGradient id="paint1_radial_105205_2148" cx="0" cy="0" r="1" gradientUnits="userSpaceOnUse" gradientTransform="translate(32.8284 51.5012) rotate(4.9342) scale(27.6294 5.01057)">
<stop offset="0.0625" stop-color="#5988FF"/>
<stop offset="0.515625" stop-color="#5988FF"/>
<stop offset="1" stop-color="#0043F0"/>
</radialGradient>
</defs>
</svg>
