<svg width="55" height="47" viewBox="0 0 55 47" fill="none" xmlns="http://www.w3.org/2000/svg">
<path d="M22.3608 21.888H48.8345C49.5248 21.888 50.0845 22.4476 50.0845 23.138V40.1761H21.1108V23.138C21.1108 22.4476 21.6705 21.888 22.3608 21.888Z" fill="#1E0A7D" stroke="url(#paint0_radial_146606_262)" stroke-width="1.5"/>
<path d="M16.9893 42.4933H54.0801V43.9891C54.0801 45.646 52.7369 46.9891 51.0801 46.9891H19.9893C18.3324 46.9891 16.9893 45.646 16.9893 43.9891V42.4933Z" fill="url(#paint1_radial_146606_262)"/>
<rect x="32.7246" y="43.6173" width="6.74379" height="1.12396" rx="0.561982" fill="#140754"/>
<path d="M22.9893 13.5133C16.4893 12.5133 13.9895 16.0132 13.2151 22.0278" stroke="#75BCE4" stroke-width="2" stroke-linecap="round"/>
<path d="M23.4893 8.01324C13.426 7.0474 7.73133 13.0162 7.32783 21.8931" stroke="#75BCE4" stroke-width="2" stroke-linecap="round"/>
<defs>
<radialGradient id="paint0_radial_146606_262" cx="0" cy="0" r="1" gradientUnits="userSpaceOnUse" gradientTransform="translate(26.3907 25.5748) rotate(24.8201) scale(24.9178 20.0909)">
<stop offset="0.0625" stop-color="#5988FF"/>
<stop offset="0.515625" stop-color="#5988FF"/>
<stop offset="1" stop-color="#0043F0"/>
</radialGradient>
<radialGradient id="paint1_radial_146606_262" cx="0" cy="0" r="1" gradientUnits="userSpaceOnUse" gradientTransform="translate(24.3284 43.5013) rotate(4.9342) scale(27.6294 5.01057)">
<stop offset="0.0625" stop-color="#5988FF"/>
<stop offset="0.515625" stop-color="#5988FF"/>
<stop offset="1" stop-color="#0043F0"/>
</radialGradient>
</defs>
</svg>
