<svg width="64" height="69" viewBox="0 0 64 69" fill="none" xmlns="http://www.w3.org/2000/svg">
<g clip-path="url(#clip0_382_3355)">
<path d="M36.5788 66.2798L35.134 67.7136C34.2672 68.5739 33.1261 69.0078 31.9925 69.0078C30.8515 69.0078 29.7179 68.5739 28.8511 67.7136C27.1173 65.9931 27.1173 63.1989 28.8511 61.4783L33.9708 56.3975C33.3484 58.5519 33.4447 60.9122 34.2968 62.9857C34.808 64.221 35.5934 65.3533 36.5788 66.2798Z" fill="#F7F4F4"/>
<path d="M55.3461 47.6547L36.5788 66.2797C35.5934 65.3606 34.808 64.2209 34.2968 62.9783C33.4447 60.9047 33.3484 58.5444 33.9708 56.39L45.9143 44.5371L28.8511 27.5959C27.1173 25.8753 27.1173 23.0812 28.8511 21.3533C30.5848 19.6253 33.4003 19.6327 35.1414 21.3533L55.3461 41.4121C57.0798 43.1327 57.0798 45.9268 55.3461 47.6547Z" fill="white"/>
<path d="M35.1338 7.52964L30.5105 12.1179C28.7472 12.4708 26.8875 12.5517 25.0796 12.5885C22.5383 12.6399 19.997 12.6326 17.4482 12.5958L28.8509 1.29435C30.5846 -0.426241 33.4001 -0.426241 35.1412 1.29435C36.8824 3.01494 36.8676 5.80905 35.1338 7.52964Z" fill="#F7F4F4"/>
<path d="M35.134 47.6471C34.2671 48.5074 33.1261 48.9412 31.9925 48.9412C30.8515 48.9412 29.7179 48.5074 28.8511 47.6471L8.63897 27.5883C7.80174 26.7647 7.33496 25.6397 7.33496 24.4706C7.33496 23.3015 7.80174 22.1765 8.63897 21.353L17.4558 12.5956C19.9972 12.6324 22.5385 12.6324 25.0872 12.5883C26.895 12.5515 28.7473 12.4706 30.5181 12.1177L18.0708 24.4706L35.1414 41.4118C36.8677 43.1324 36.8677 45.9265 35.134 47.6471Z" fill="white"/>
<path d="M23.4945 49.9194C23.3612 50.1326 23.1611 50.3018 22.9611 50.4635C21.7608 51.4341 20.4049 52.2356 18.9083 52.6032C17.3376 52.9856 15.6705 52.8753 14.0775 53.0518L8.63184 47.6473C6.89811 45.9268 6.89811 43.1326 8.63184 41.4047C10.3656 39.6841 13.181 39.6841 14.9222 41.4047L23.4945 49.9194Z" fill="white"/>
<path d="M25.043 57.7725C24.1761 58.6328 23.0351 59.0666 21.9015 59.0666C20.7679 59.0666 19.6269 58.6328 18.76 57.7725L14.0923 53.1402C15.6927 52.9563 17.3523 53.074 18.923 52.6916C20.4197 52.324 21.783 51.5225 22.9758 50.5519C23.1759 50.3902 23.3685 50.221 23.5093 50.0078L25.043 51.5299C26.7767 53.2578 26.7767 56.0519 25.043 57.7725Z" fill="#F7F4F4"/>
<path d="M55.3538 27.5956C54.4869 28.4559 53.3459 28.8897 52.2123 28.8897C51.0713 28.8897 49.9377 28.4559 49.0709 27.5956L43.0176 21.5882C42.9435 20.8088 43.0324 20.0221 43.314 19.2868C43.7215 18.2353 44.4846 17.3603 45.2107 16.5C45.9368 15.6324 46.6629 14.7206 46.9593 13.625C47.0037 13.4632 47.0333 13.2941 47.0556 13.125L55.3464 21.3529C57.0875 23.0809 57.0875 25.875 55.3538 27.5956Z" fill="white"/>
<path d="M47.063 13.1251C47.0408 13.2942 47.0112 13.456 46.9667 13.6251C46.6703 14.7134 45.9442 15.6325 45.2181 16.5001C44.4921 17.3678 43.7215 18.2354 43.3214 19.2869C43.0399 20.0222 42.951 20.8089 43.0251 21.5884L38.9649 17.5589C37.2311 15.8384 37.2311 13.0442 38.9649 11.3236C40.6986 9.60306 43.5141 9.60306 45.2552 11.3236L47.063 13.1251Z" fill="#F7F4F4"/>
<path d="M41.6243 8.71332C43.568 8.71332 45.1436 7.14961 45.1436 5.22067C45.1436 3.29174 43.568 1.72803 41.6243 1.72803C39.6806 1.72803 38.105 3.29174 38.105 5.22067C38.105 7.14961 39.6806 8.71332 41.6243 8.71332Z" fill="white"/>
<path d="M22.242 67.9047C24.1857 67.9047 25.7613 66.341 25.7613 64.4121C25.7613 62.4831 24.1857 60.9194 22.242 60.9194C20.2983 60.9194 18.7227 62.4831 18.7227 64.4121C18.7227 66.341 20.2983 67.9047 22.242 67.9047Z" fill="white"/>
<path d="M59.5544 38.9119C62.0095 38.9119 63.9998 36.9367 63.9998 34.5001C63.9998 32.0636 62.0095 30.0884 59.5544 30.0884C57.0992 30.0884 55.1089 32.0636 55.1089 34.5001C55.1089 36.9367 57.0992 38.9119 59.5544 38.9119Z" fill="white"/>
<path d="M4.44547 39.0076C6.90064 39.0076 8.89095 37.0324 8.89095 34.5958C8.89095 32.1593 6.90064 30.1841 4.44547 30.1841C1.99031 30.1841 0 32.1593 0 34.5958C0 37.0324 1.99031 39.0076 4.44547 39.0076Z" fill="white"/>
</g>
<defs>
<clipPath id="clip0_382_3355">
<rect width="64" height="69" fill="white"/>
</clipPath>
</defs>
</svg>
