<svg width="66" height="76" viewBox="0 0 66 76" fill="none" xmlns="http://www.w3.org/2000/svg">
<path d="M0.00585795 0.513216C0.00585795 0.803961 -0.00732243 1.0022 0.00585795 1.20043C0.506712 6.69817 1.00757 12.1959 1.49524 17.7069C2.18062 25.5041 2.85282 33.3014 3.5382 41.0855C4.31584 49.8343 5.10666 58.5699 5.85795 67.3187C5.91067 67.953 6.13473 68.2305 6.72785 68.3891C15.1633 70.7151 23.5724 73.0543 32.0078 75.367C32.5746 75.5256 33.2599 75.552 33.8267 75.3934C42.2885 73.0675 50.7371 70.7019 59.1989 68.3627C59.8448 68.1777 60.0688 67.8869 60.1216 67.2261C60.3852 63.9222 60.7015 60.6051 60.9915 57.3011C61.4791 51.8298 61.9536 46.3585 62.4413 40.8872C63.0081 34.4644 63.588 28.0548 64.1548 21.6319C64.5765 16.8478 65.0247 12.077 65.4464 7.29288C65.6441 5.04621 65.8155 2.79953 66 0.5H0.00585795V0.513216ZM53.2678 19.5967C52.8328 24.4337 52.3979 29.2838 51.9629 34.1208C51.462 39.6846 50.9612 45.2484 50.4603 50.799C50.3154 52.3981 50.1045 53.9972 50.0649 55.6095C50.0386 56.4686 49.6695 56.6932 48.9578 56.8915C43.8701 58.2659 38.7957 59.68 33.7213 61.0808C33.4972 61.1469 33.2863 61.2262 33.0622 61.2923C32.9832 61.2526 32.9041 61.2262 32.8118 61.1866C27.3815 59.7064 21.9512 58.213 16.5209 56.7064C16.2968 56.6404 16.0068 56.2835 15.9805 56.0324C15.5982 51.9091 15.2556 47.7858 14.8865 43.5832H23.177C23.3219 45.2352 23.4801 46.9136 23.6119 48.6052C23.7305 50.1647 23.7174 50.1647 25.1804 50.5611C27.8033 51.2616 30.4393 51.9488 33.0622 52.636L33.0359 52.5699C35.9092 51.8034 38.7825 51.0501 41.6558 50.2307C41.9195 50.1514 42.2226 49.7285 42.2621 49.4378C42.4335 48.1691 42.5257 46.8872 42.6312 45.6185C42.8025 43.57 42.9739 41.5216 43.1584 39.3806H33.0359L33.0622 39.3278C32.9963 39.3278 32.9173 39.3278 32.8514 39.3278H14.5043C14.2538 36.5921 14.0166 33.8829 13.7662 31.0944H32.8645C32.9304 31.0944 33.0095 31.0944 33.0754 31.0944L33.0491 31.0415H43.8965C44.1469 28.2001 44.3974 25.4248 44.6478 22.5967H33.0359L33.0622 22.5438C32.9963 22.5438 32.9173 22.5438 32.8514 22.5438C26.3534 22.557 19.8555 22.557 13.3576 22.5702C13.2653 22.5702 13.1731 22.5306 13.0017 22.4777C12.7645 19.7817 12.514 17.0857 12.2768 14.3104H32.8514C32.9173 14.3104 32.9963 14.3104 33.0622 14.3104L33.0359 14.2576H53.7027C53.5577 16.1078 53.4127 17.8522 53.2678 19.5967Z" fill="white"/>
</svg>
