<svg width="77" height="76" viewBox="0 0 77 76" fill="none" xmlns="http://www.w3.org/2000/svg">
<path d="M63.4012 31.6751L39.0508 45.3694C38.6126 45.6239 38.0711 45.6239 37.62 45.3694L13.2696 31.6751C12.3157 31.1406 12.3157 29.7788 13.2696 29.2316L37.62 15.5374C38.0583 15.2828 38.5997 15.2828 39.0508 15.5374L63.4012 29.2316C64.3551 29.7661 64.3551 31.1279 63.4012 31.6751Z" fill="white"/>
<path d="M59.186 36.2823V47.5711C59.186 48.0802 58.9153 48.5384 58.4641 48.7929L39.0508 59.7127C38.6126 59.9672 38.0712 59.9672 37.62 59.7127L18.2067 48.7929C17.7556 48.5384 17.4849 48.0802 17.4849 47.5711V36.2823L28.2485 42.3276L37.62 47.6093C38.0583 47.8638 38.5997 47.8638 39.0508 47.6093L48.4223 42.3276L59.186 36.2823Z" fill="white"/>
<path d="M70.5295 17.65L71.1998 17.1919C72.0119 16.6319 71.9088 15.4228 71.0193 15.0028L65.6826 12.4956C64.7803 12.0756 63.7619 12.7756 63.8393 13.7556L64.3549 19.5718C64.4451 20.5391 65.5666 21.0609 66.3787 20.5009L67.3326 19.8518C75.8147 33.3424 73.533 51.3129 61.6737 62.258C50.0077 73.0251 32.0253 74.3359 18.9155 65.3761C18.039 64.778 16.8273 64.9943 16.2214 65.8598C15.6155 66.7252 15.8347 67.9215 16.7112 68.5197C23.1952 72.9487 30.7362 75.125 38.2643 75.125C47.6874 75.125 57.0846 71.7142 64.3162 65.0452C77.5549 52.8146 80.1072 32.6933 70.5295 17.65Z" fill="white"/>
<path d="M59.9593 6.73033C45.3671 -3.24761 25.348 -1.78401 12.3543 10.2048C-1.21953 22.7409 -3.65586 42.7731 6.46327 58.0709L5.52225 58.7072C4.71014 59.2672 4.81327 60.4763 5.70272 60.8963L11.0394 63.4035C11.9418 63.8235 12.9601 63.1235 12.8828 62.1435L12.3672 56.3273C12.2769 55.3601 11.1554 54.8382 10.3433 55.3982L9.64724 55.8819C0.649604 42.1495 2.82812 24.2172 14.9968 12.992C26.6628 2.22499 44.6452 0.901382 57.755 9.87389C58.6315 10.4721 59.8433 10.2557 60.4491 9.39027C61.055 8.52483 60.8358 7.3285 59.9593 6.73033Z" fill="white"/>
</svg>
